<svg id="Layer_1" data-name="Layer 1" xmlns="http://www.w3.org/2000/svg" viewBox="0 0 90.32 18.36"><defs><style>.cls-1,.cls-2,.cls-3{fill:#d1d3d4;}.cls-2{font-size:5.29px;letter-spacing:-0.01em;}.cls-2,.cls-3{font-family:SegoeUI-SemilightItalic, Segoe UI;font-weight:300;font-style:italic;}.cls-3{font-size:4.52px;letter-spacing:-0.01em;}.cls-4{letter-spacing:0em;}.cls-5{font-family:SegoeUI-Italic, Segoe UI;font-weight:400;letter-spacing:-0.01em;}</style></defs><title>navbar_brand</title><path class="cls-1" d="M121.24,262.69h0a1.09,1.09,0,0,0-.28-.11,1,1,0,0,0-.32-.06,1,1,0,0,0-.55.16,1.46,1.46,0,0,0-.44.42,2.41,2.41,0,0,0-.32.62,4.11,4.11,0,0,0-.21.75l-.47,2.52H117l.74-3.83c0-.18.07-.37.1-.57s.07-.38.1-.57,0-.38.08-.55,0-.34,0-.48h1.65l0,.35c0,.12,0,.24,0,.35s0,.21,0,.3,0,.16,0,.21h0a3.6,3.6,0,0,1,.69-1,1.21,1.21,0,0,1,.84-.34,1.09,1.09,0,0,1,.26,0l.24.05Z" transform="translate(-116.77 -254.79)"/><path class="cls-1" d="M130.65,262.42c0,.06,0,.13,0,.23s0,.2,0,.31,0,.2-.05.3,0,.19,0,.26l-.66,3.47h-1.67l.66-3.42.06-.39a2.24,2.24,0,0,0,0-.31.75.75,0,0,0-.12-.45.47.47,0,0,0-.39-.16.77.77,0,0,0-.43.15,2.27,2.27,0,0,0-.43.4,3.37,3.37,0,0,0-.36.56,3.11,3.11,0,0,0-.22.65l-.55,3h-1.68l.66-3.42.06-.39a2.24,2.24,0,0,0,0-.31.69.69,0,0,0-.13-.45.44.44,0,0,0-.38-.16.77.77,0,0,0-.43.15,2,2,0,0,0-.43.4,3.21,3.21,0,0,0-.35.57,2.21,2.21,0,0,0-.22.64l-.57,3H121.3l.8-4.12.09-.54.09-.52c0-.16,0-.32.06-.46s0-.26,0-.36H124l0,.34c0,.12,0,.23,0,.34a2,2,0,0,1,0,.29,1.55,1.55,0,0,1,0,.18h0a4.33,4.33,0,0,1,.42-.52,5.82,5.82,0,0,1,.48-.41,2.94,2.94,0,0,1,.53-.27,1.42,1.42,0,0,1,.53-.1,1.24,1.24,0,0,1,1,.36,1.7,1.7,0,0,1,.37,1,3.42,3.42,0,0,1,.44-.55,2.92,2.92,0,0,1,.5-.44,2.66,2.66,0,0,1,.56-.28,1.7,1.7,0,0,1,.59-.1,1.25,1.25,0,0,1,1,.41A1.76,1.76,0,0,1,130.65,262.42Z" transform="translate(-116.77 -254.79)"/><path class="cls-1" d="M136.5,265l-.07.44-.06.53c0,.19,0,.37-.05.55s0,.33,0,.46h-1.68a2,2,0,0,1,0-.23c0-.09,0-.18,0-.28a2.64,2.64,0,0,1,0-.28c0-.09,0-.17,0-.23h0l-.31.44a2.16,2.16,0,0,1-.37.37,1.76,1.76,0,0,1-.44.26,1.66,1.66,0,0,1-.57.09,1.57,1.57,0,0,1-.7-.15,1.43,1.43,0,0,1-.52-.46,2.13,2.13,0,0,1-.32-.73,3.67,3.67,0,0,1-.11-1,6.23,6.23,0,0,1,0-.67,6.08,6.08,0,0,1,.2-.85,4.61,4.61,0,0,1,.41-.88,3,3,0,0,1,.66-.78,3,3,0,0,1,1-.57,3.67,3.67,0,0,1,1.35-.22l.6,0,.59.07.57.1.51.12Zm-1.4-2.85-.28,0a1.39,1.39,0,0,0-.63.14,1.52,1.52,0,0,0-.48.35,2.14,2.14,0,0,0-.34.49,3.29,3.29,0,0,0-.33,1.11,2.9,2.9,0,0,0,0,.48,2.46,2.46,0,0,0,0,.4,1,1,0,0,0,.13.32.55.55,0,0,0,.49.29.79.79,0,0,0,.53-.2,1.84,1.84,0,0,0,.42-.49,3.86,3.86,0,0,0,.29-.68,6.87,6.87,0,0,0,.19-.75l.28-1.4Z" transform="translate(-116.77 -254.79)"/><path class="cls-1" d="M143.69,267H142l-.13-3.55c0-.12,0-.26,0-.41a3.21,3.21,0,0,1,0-.36h0a1.8,1.8,0,0,1,0,.19l-.06.2c0,.07-.05.14-.07.2a1.89,1.89,0,0,1-.06.18L140.1,267h-1.75l-.37-6h1.6v3.9c0,.09,0,.2,0,.34s0,.25,0,.34h0s0-.09.05-.15l.06-.2.06-.2a1.62,1.62,0,0,1,.06-.17l1.64-3.86H143l.1,3.89V265a1.41,1.41,0,0,0,0,.2,1.5,1.5,0,0,0,0,.2c0,.06,0,.11,0,.14h0s0-.09,0-.15l.06-.2.06-.2c0-.06,0-.11.05-.15l1.41-3.89h1.62Z" transform="translate(-116.77 -254.79)"/><path class="cls-1" d="M151.41,265c0,.12,0,.26-.08.44l-.06.53c0,.19,0,.37-.05.55s0,.33,0,.46h-1.69a2,2,0,0,1,0-.23c0-.09,0-.18,0-.28a2.64,2.64,0,0,1,0-.28c0-.09,0-.17,0-.23h0c-.1.15-.2.3-.31.44a2.16,2.16,0,0,1-.37.37,1.76,1.76,0,0,1-.44.26,1.62,1.62,0,0,1-.57.09,1.57,1.57,0,0,1-.7-.15,1.43,1.43,0,0,1-.52-.46,2.13,2.13,0,0,1-.32-.73,4.13,4.13,0,0,1-.11-1,6.23,6.23,0,0,1,.05-.67,6.08,6.08,0,0,1,.2-.85,5.31,5.31,0,0,1,.41-.88,3,3,0,0,1,.66-.78,3,3,0,0,1,1-.57,3.67,3.67,0,0,1,1.35-.22l.6,0,.6.07.56.1.51.12ZM150,262.16l-.27,0a1.41,1.41,0,0,0-.64.14,1.65,1.65,0,0,0-.48.35,2.14,2.14,0,0,0-.34.49,3.29,3.29,0,0,0-.33,1.11,4.64,4.64,0,0,0,0,.48,2.46,2.46,0,0,0,0,.4,1,1,0,0,0,.13.32.55.55,0,0,0,.49.29.84.84,0,0,0,.54-.2,2,2,0,0,0,.41-.49,3.86,3.86,0,0,0,.29-.68,6.87,6.87,0,0,0,.19-.75l.28-1.4Z" transform="translate(-116.77 -254.79)"/><path class="cls-1" d="M161.11,267.1a1.22,1.22,0,0,1-.81-.28,1.42,1.42,0,0,1-.3-.3,2.51,2.51,0,0,1-.27-.37c-.11.1-.25.2-.4.32a3.45,3.45,0,0,1-.54.3,2.92,2.92,0,0,1-.65.24,3.21,3.21,0,0,1-.78.09,2.85,2.85,0,0,1-.91-.14,2.18,2.18,0,0,1-.68-.4,1.79,1.79,0,0,1-.42-.63,2.18,2.18,0,0,1-.15-.82,2,2,0,0,1,.16-.85,2.08,2.08,0,0,1,.44-.64,2.87,2.87,0,0,1,.63-.47,6.89,6.89,0,0,1,.73-.34l-.19-.21a1.87,1.87,0,0,1-.16-.28,1.7,1.7,0,0,1-.12-.34,1.74,1.74,0,0,1-.05-.39,1.83,1.83,0,0,1,.14-.73,1.41,1.41,0,0,1,.42-.54,1.87,1.87,0,0,1,.64-.34,3.24,3.24,0,0,1,.85-.11,2.37,2.37,0,0,1,.72.1,1.69,1.69,0,0,1,.55.29,1.29,1.29,0,0,1,.48,1.06,1.49,1.49,0,0,1-.12.62,1.6,1.6,0,0,1-.32.45,2.1,2.1,0,0,1-.46.32,4.9,4.9,0,0,1-.52.24,2.61,2.61,0,0,1,.3.24c.1.11.21.23.31.36s.19.28.28.43a3.11,3.11,0,0,1,.22.45,4.65,4.65,0,0,0,.49-.59,3.66,3.66,0,0,0,.37-.67,3,3,0,0,0,.24-.72,3.22,3.22,0,0,0,.09-.76v-.09a.28.28,0,0,1,0-.09h1.18a1.7,1.7,0,0,1,0,.22,2.94,2.94,0,0,1-.08.72,5.83,5.83,0,0,1-.22.71c-.1.23-.21.45-.33.67s-.26.42-.39.62-.28.37-.43.54l-.41.44a1,1,0,0,0,.36.38.72.72,0,0,0,.41.11,1.61,1.61,0,0,0,.39,0l.38-.12L162,267a1.6,1.6,0,0,1-.39.11A2.49,2.49,0,0,1,161.11,267.1Zm-3.57-1.19a2.21,2.21,0,0,0,.89-.2,3.28,3.28,0,0,0,.82-.53,3.7,3.7,0,0,0-.59-1.06,2.71,2.71,0,0,0-.73-.65,4.6,4.6,0,0,0-.45.22,2.53,2.53,0,0,0-.42.31,1.67,1.67,0,0,0-.32.42,1.22,1.22,0,0,0-.12.56.9.9,0,0,0,.07.37.73.73,0,0,0,.19.3,1,1,0,0,0,.29.19A.94.94,0,0,0,157.54,265.91Zm.69-3.59.31-.12a1.34,1.34,0,0,0,.31-.17,1,1,0,0,0,.23-.24.6.6,0,0,0,.1-.35.5.5,0,0,0-.16-.39.52.52,0,0,0-.38-.15,1,1,0,0,0-.3,0,.89.89,0,0,0-.25.14.81.81,0,0,0-.17.23.79.79,0,0,0-.06.32.7.7,0,0,0,.11.41A1,1,0,0,0,158.23,262.32Z" transform="translate(-116.77 -254.79)"/><path class="cls-1" d="M170.07,267h-4.51l1.61-8.4h1.72l-1.31,6.84h2.79Z" transform="translate(-116.77 -254.79)"/><path class="cls-1" d="M176.12,262.53a2,2,0,0,1-.18.85,1.63,1.63,0,0,1-.59.67,3,3,0,0,1-1.1.44,7.83,7.83,0,0,1-1.7.18.18.18,0,0,0,0,.06v.06a1.12,1.12,0,0,0,.05.36.89.89,0,0,0,.18.33,1,1,0,0,0,.34.24,1.36,1.36,0,0,0,.53.09,2.1,2.1,0,0,0,.41,0,2.78,2.78,0,0,0,.46-.11l.46-.18a2.78,2.78,0,0,0,.42-.22l-.26,1.38a2.55,2.55,0,0,1-.37.18,2.75,2.75,0,0,1-.46.16,2.65,2.65,0,0,1-.52.11,3.43,3.43,0,0,1-.56,0,2.56,2.56,0,0,1-1.05-.19,2.2,2.2,0,0,1-.72-.54,2.06,2.06,0,0,1-.41-.79,3.32,3.32,0,0,1-.14-1,4.7,4.7,0,0,1,.23-1.46,3.83,3.83,0,0,1,.66-1.21,3,3,0,0,1,1-.83,2.8,2.8,0,0,1,1.33-.31,2.68,2.68,0,0,1,.91.14,1.76,1.76,0,0,1,.61.38,1.57,1.57,0,0,1,.35.54A1.94,1.94,0,0,1,176.12,262.53Zm-1.59,0a.49.49,0,0,0-.14-.36.54.54,0,0,0-.41-.15,1,1,0,0,0-.45.12,1.2,1.2,0,0,0-.38.3,2,2,0,0,0-.31.47,2.72,2.72,0,0,0-.19.59,3,3,0,0,0,1.42-.24A.79.79,0,0,0,174.53,262.56Z" transform="translate(-116.77 -254.79)"/><path class="cls-1" d="M185.6,262.42c0,.06,0,.13,0,.23s0,.2,0,.31,0,.2,0,.3,0,.19-.05.26l-.66,3.47h-1.66l.65-3.42c0-.13,0-.26.07-.39a2.24,2.24,0,0,0,0-.31.69.69,0,0,0-.13-.45.45.45,0,0,0-.39-.16.77.77,0,0,0-.42.15,1.8,1.8,0,0,0-.43.4,2.44,2.44,0,0,0-.36.56,2.27,2.27,0,0,0-.22.65l-.55,3h-1.68l.66-3.42.06-.39a2.24,2.24,0,0,0,0-.31.69.69,0,0,0-.13-.45.46.46,0,0,0-.39-.16.8.8,0,0,0-.43.15,2,2,0,0,0-.42.4,2.76,2.76,0,0,0-.36.57,2.53,2.53,0,0,0-.21.64l-.57,3h-1.69l.8-4.12c0-.18.07-.36.1-.54s.06-.35.08-.52.05-.32.07-.46,0-.26,0-.36H179c0,.11,0,.22,0,.34s0,.23,0,.34,0,.21,0,.29a1.06,1.06,0,0,1,0,.18h0a4.33,4.33,0,0,1,.42-.52,3.72,3.72,0,0,1,.48-.41,2.86,2.86,0,0,1,.52-.27,1.47,1.47,0,0,1,.54-.1,1.2,1.2,0,0,1,.95.36,1.71,1.71,0,0,1,.38,1,4,4,0,0,1,.43-.55,3,3,0,0,1,.51-.44,2.44,2.44,0,0,1,.56-.28,1.7,1.7,0,0,1,.59-.1,1.26,1.26,0,0,1,1,.41A1.81,1.81,0,0,1,185.6,262.42Z" transform="translate(-116.77 -254.79)"/><path class="cls-1" d="M191.45,265c0,.12,0,.26-.07.44l-.06.53c0,.19,0,.37,0,.55s0,.33,0,.46h-1.69c0-.06,0-.14,0-.23s0-.18,0-.28l0-.28a1.4,1.4,0,0,1,0-.23h0c-.1.15-.21.3-.32.44a2.53,2.53,0,0,1-.36.37,1.66,1.66,0,0,1-.45.26,1.77,1.77,0,0,1-1.27-.06,1.49,1.49,0,0,1-.51-.46,2.34,2.34,0,0,1-.33-.73,4.13,4.13,0,0,1-.11-1,4.58,4.58,0,0,1,.06-.67,4.94,4.94,0,0,1,.2-.85,5.23,5.23,0,0,1,.4-.88,3.17,3.17,0,0,1,1.64-1.35,3.66,3.66,0,0,1,1.34-.22l.61,0,.59.07.57.1.51.12Zm-1.4-2.85-.28,0a1.47,1.47,0,0,0-1.11.49,1.87,1.87,0,0,0-.34.49,3,3,0,0,0-.22.56,3.89,3.89,0,0,0-.12.55,4.4,4.4,0,0,0,0,.48,1.7,1.7,0,0,0,0,.4,1,1,0,0,0,.12.32.7.7,0,0,0,.21.21.55.55,0,0,0,.29.08.81.81,0,0,0,.53-.2,1.81,1.81,0,0,0,.41-.49,3.25,3.25,0,0,0,.3-.68,6.87,6.87,0,0,0,.19-.75l.28-1.4Z" transform="translate(-116.77 -254.79)"/><path class="cls-1" d="M198.63,267h-1.72l-.13-3.55c0-.12,0-.26,0-.41s0-.27,0-.36h0a1.8,1.8,0,0,1-.05.19l-.06.2c0,.07-.05.14-.07.2a1.71,1.71,0,0,1-.07.18l-1.5,3.55h-1.76l-.36-6h1.6v3.9c0,.09,0,.2,0,.34a2.45,2.45,0,0,1,0,.34h0a1.31,1.31,0,0,0,.05-.15l.06-.2a1.59,1.59,0,0,0,.07-.2,1.62,1.62,0,0,1,.06-.17l1.64-3.86H198l.1,3.89V265a1.27,1.27,0,0,1,0,.2c0,.07,0,.14,0,.2a1.15,1.15,0,0,0,0,.14h0l.05-.15a1.94,1.94,0,0,1,0-.2c0-.07.05-.14.07-.2s0-.11,0-.15L199.7,261h1.62Z" transform="translate(-116.77 -254.79)"/><path class="cls-1" d="M206.35,265c0,.12,0,.26-.07.44l-.06.53c0,.19,0,.37-.05.55s0,.33,0,.46h-1.68v-.23a2.46,2.46,0,0,0,0-.28l0-.28c0-.09,0-.17,0-.23h0c-.1.15-.21.3-.32.44a2.53,2.53,0,0,1-.36.37,1.76,1.76,0,0,1-.44.26,1.7,1.7,0,0,1-.57.09,1.57,1.57,0,0,1-.7-.15,1.43,1.43,0,0,1-.52-.46,2.13,2.13,0,0,1-.32-.73,3.67,3.67,0,0,1-.11-1,4.4,4.4,0,0,1,0-.67,4.94,4.94,0,0,1,.2-.85,5.23,5.23,0,0,1,.4-.88,3.5,3.5,0,0,1,.66-.78,3,3,0,0,1,1-.57,3.66,3.66,0,0,1,1.34-.22l.61,0,.59.07.57.1.51.12Zm-1.4-2.85-.28,0a1.47,1.47,0,0,0-1.11.49,1.87,1.87,0,0,0-.34.49,3,3,0,0,0-.22.56c-.05.19-.09.37-.12.55a4.4,4.4,0,0,0,0,.48,1.7,1.7,0,0,0,0,.4,1.33,1.33,0,0,0,.12.32.7.7,0,0,0,.21.21.55.55,0,0,0,.29.08.79.79,0,0,0,.53-.2,1.65,1.65,0,0,0,.41-.49,3.25,3.25,0,0,0,.3-.68,6.87,6.87,0,0,0,.19-.75l.28-1.4Z" transform="translate(-116.77 -254.79)"/><text class="cls-2" transform="translate(0.64 4.49) scale(1.02 1)">Sistem Informasi</text><text class="cls-3" transform="translate(0 17.16) scale(1.02 1)">Unive<tspan class="cls-4" x="10.65" y="0">r</tspan><tspan x="12.2" y="0">sitas </tspan><tspan class="cls-5" x="21.66" y="0">PGRI</tspan><tspan x="31.09" y="0" xml:space="preserve"> Semarang</tspan></text></svg>