<svg id="Layer_1" data-name="Layer 1" xmlns="http://www.w3.org/2000/svg" viewBox="0 0 17.68 18.73"><defs><style>.cls-1{fill:#d1d3d4;}</style></defs><title>navbar_logo</title><path class="cls-1" d="M116.67,262.05a7,7,0,0,1-.07,1,7.94,7.94,0,0,1-.24,1,5.2,5.2,0,0,1-.39.91,4.15,4.15,0,0,1-.54.8,4.46,4.46,0,0,1-.58.57,3.33,3.33,0,0,1-.67.43,4.7,4.7,0,0,1-.8.27,4.42,4.42,0,0,1-.92.09,3.13,3.13,0,0,1-1.33-.27,2.89,2.89,0,0,1-1-.76,3.24,3.24,0,0,1-.61-1.15,4.42,4.42,0,0,1-.22-1.43,6.56,6.56,0,0,1,.09-1.08,5.84,5.84,0,0,1,.25-1,6.52,6.52,0,0,1,.43-.93,5.24,5.24,0,0,1,.59-.81,4.53,4.53,0,0,1,.57-.51,3.59,3.59,0,0,1,.66-.39,4.23,4.23,0,0,1,.76-.25,4,4,0,0,1,.87-.09,3.36,3.36,0,0,1,1.28.25,2.73,2.73,0,0,1,1,.71,3.32,3.32,0,0,1,.64,1.14A4.48,4.48,0,0,1,116.67,262.05Zm-1.8.07a3.15,3.15,0,0,0-.1-.85,2.24,2.24,0,0,0-.31-.64,1.57,1.57,0,0,0-.49-.4,1.51,1.51,0,0,0-.65-.13,1.62,1.62,0,0,0-.8.21,2.27,2.27,0,0,0-.67.61,2.33,2.33,0,0,0-.32.54,4,4,0,0,0-.23.64,5.08,5.08,0,0,0-.2,1.4,3.18,3.18,0,0,0,.11.85,1.86,1.86,0,0,0,.31.63,1.27,1.27,0,0,0,.48.38,1.46,1.46,0,0,0,.63.14,1.7,1.7,0,0,0,.82-.21,1.88,1.88,0,0,0,.69-.63,2.94,2.94,0,0,0,.32-.55,4.88,4.88,0,0,0,.23-.64c.06-.23.1-.45.14-.68A5.22,5.22,0,0,0,114.87,262.12Z" transform="translate(-98.99 -248.41)"/><path class="cls-1" d="M99,254.05s4.78,2.3,6.47,1.48c1.09-.52,1.4-2.93-.36-5.28a5.58,5.58,0,0,0-2.14-1.84,6.5,6.5,0,0,1,1.7,3.32c.23,2.13-1,2.39-1.7,2.42a8.44,8.44,0,0,1-2.74-.53Z" transform="translate(-98.99 -248.41)"/><path class="cls-1" d="M107.22,254.58a2.7,2.7,0,0,1-1.22,1.7,4.84,4.84,0,0,1-2.58.09c-.69,1.65-.19,4.52,1.9,7.3a9.13,9.13,0,0,0,3.48,3,10.67,10.67,0,0,1-2.77-5.4c-.37-3.46,1.62-3.88,2.77-3.93a9.26,9.26,0,0,1,3.75.74l2.38-.39S110.85,254.74,107.22,254.58Z" transform="translate(-98.99 -248.41)"/></svg>